<svg xmlns="http://www.w3.org/2000/svg" width="37" height="31" fill="#ee5514" xmlns:v="https://vecta.io/nano"><path opacity=".1" d="M11.645 13.77a9.64 9.64 0 0 0-2.664-.389 8.37 8.37 0 0 0-3.34.684c.84-3.074 2.857-8.378 6.875-8.975.372-.055.677-.324.779-.687l.878-3.141c.074-.266.03-.55-.121-.78s-.395-.384-.668-.422a6.67 6.67 0 0 0-.9-.06C7.662 0 2.885 5.034.87 12.242-.313 16.471-.66 22.828 2.254 26.83c1.631 2.239 4.01 3.435 7.072 3.554l.037.001a8.49 8.49 0 0 0 8.146-6.186 8.41 8.41 0 0 0-.776-6.431c-1.097-1.948-2.904-3.368-5.089-3.997zm23.646 3.998c-1.097-1.949-2.904-3.369-5.089-3.997a9.64 9.64 0 0 0-2.664-.389 8.39 8.39 0 0 0-3.341.684c.84-3.074 2.857-8.378 6.875-8.975.372-.055.677-.324.779-.687l.878-3.141c.074-.266.03-.55-.121-.78s-.395-.384-.668-.422A6.66 6.66 0 0 0 31.043 0c-4.823 0-9.599 5.034-11.615 12.242-1.183 4.229-1.53 10.586 1.385 14.589 1.63 2.239 4.01 3.435 7.071 3.554l.038.001c3.777 0 7.127-2.544 8.146-6.186.608-2.177.332-4.461-.776-6.431z"/></svg>